<?xml version="1.0" encoding="UTF-8" standalone="no"?>
<svg
   height="48"
   width="48"
   version="1.1"
   id="svg4"
   sodipodi:docname="cloud.svg"
   inkscape:version="1.2.2 (b0a8486541, 2022-12-01)"
   xmlns:inkscape="http://www.inkscape.org/namespaces/inkscape"
   xmlns:sodipodi="http://sodipodi.sourceforge.net/DTD/sodipodi-0.dtd"
   xmlns="http://www.w3.org/2000/svg"
   xmlns:svg="http://www.w3.org/2000/svg">
  <defs
     id="defs8" />
  <sodipodi:namedview
     id="namedview6"
     pagecolor="#ffffff"
     bordercolor="#000000"
     borderopacity="0.25"
     inkscape:showpageshadow="2"
     inkscape:pageopacity="0.0"
     inkscape:pagecheckerboard="0"
     inkscape:deskcolor="#d1d1d1"
     showgrid="false"
     inkscape:zoom="16.583333"
     inkscape:cx="18.874372"
     inkscape:cy="24.030151"
     inkscape:window-width="1920"
     inkscape:window-height="991"
     inkscape:window-x="-9"
     inkscape:window-y="-9"
     inkscape:window-maximized="1"
     inkscape:current-layer="svg4" />
  <path
     d="M 24.05,24 Z"
     id="path421" />
  <path
     d="m 27.9,35.35 -0.3,-1.5 -0.3,-1.5 q 2.6,-1 4.15,-3.275 Q 33,26.8 33,24 33,20.25 30.375,17.625 27.75,15 24,15 20.65,15 18.125,17.125 15.6,19.25 15.15,22.55 14.35,22.4 13.575,22.275 12.8,22.15 12,22 12.7,17.6 16.125,14.8 19.55,12 24,12 q 5,0 8.5,3.5 3.5,3.5 3.5,8.5 0,3.9 -2.225,7 -2.225,3.1 -5.875,4.35 z"
     id="path419"
     style="fill:#ffff00" />
  <path
     id="path417"
     style="fill:#f2f2f2"
     d="M 12 22 C 9.2333361 22 6.8757793 22.975783 4.9257812 24.925781 C 2.9757832 26.875779 2 29.233336 2 32 C 2 34.766664 2.9757832 37.124221 4.9257812 39.074219 C 6.8757793 41.024217 9.2333361 42 12 42 L 21 42 C 22.833331 42 24.39922 41.357551 25.699219 40.074219 C 26.999217 38.790887 27.733724 37.216274 27.900391 35.349609 C 27.900391 33.316278 27.216275 31.574999 25.849609 30.125 C 24.482944 28.675001 22.800779 27.949219 20.800781 27.949219 C 20.034115 26.149221 18.858722 24.708332 17.275391 23.625 C 15.692059 22.541668 13.933331 22 12 22 z M 12 25 C 13.299999 25 14.490886 25.350782 15.574219 26.050781 C 16.657551 26.750781 17.449219 27.700392 17.949219 28.900391 L 18.849609 30.949219 L 21.050781 30.949219 C 22.15078 30.949219 23.082943 31.350391 23.849609 32.150391 C 24.616275 32.95039 25 33.900001 25 35 C 25 36.099999 24.607551 37.040886 23.824219 37.824219 C 23.040886 38.607551 22.099999 39 21 39 L 12 39 C 10.066669 39 8.4174465 38.315884 7.0507812 36.949219 C 5.6841159 35.582553 5 33.933331 5 32 C 5 30.066669 5.684116 28.417447 7.0507812 27.050781 C 8.4174466 25.684116 10.066669 25 12 25 z " />
  <path
     d="M 12.7,14.8 7.4,9.5 9.5,7.4 l 5.3,5.3 z"
     id="path413"
     style="fill:#ffff00" />
  <path
     d="m 38.55,40.6 -5.3,-5.3 2.15,-2.15 5.3,5.3 z"
     id="path411"
     style="fill:#ffff00" />
  <path
     d="m 38.5,25.5 v -3 H 46 v 3 z"
     id="path409"
     style="fill:#ffff00" />
  <path
     d="m 35.3,14.8 -2.1,-2.15 5.3,-5.3 2.1,2.15 z"
     id="path407"
     style="fill:#ffff00" />
  <path
     d="M 22.5,9.5 V 2 h 3 v 7.5 z"
     id="path2"
     style="fill:#ffff00" />
</svg>
