<?xml version="1.0" encoding="UTF-8" standalone="no"?>
<svg
   height="48"
   width="48"
   version="1.1"
   id="svg4"
   sodipodi:docname="humidity.svg"
   inkscape:version="1.2.2 (b0a8486541, 2022-12-01)"
   xmlns:inkscape="http://www.inkscape.org/namespaces/inkscape"
   xmlns:sodipodi="http://sodipodi.sourceforge.net/DTD/sodipodi-0.dtd"
   xmlns="http://www.w3.org/2000/svg"
   xmlns:svg="http://www.w3.org/2000/svg">
  <defs
     id="defs8" />
  <sodipodi:namedview
     id="namedview6"
     pagecolor="#ffffff"
     bordercolor="#000000"
     borderopacity="0.25"
     inkscape:showpageshadow="2"
     inkscape:pageopacity="0.0"
     inkscape:pagecheckerboard="0"
     inkscape:deskcolor="#d1d1d1"
     showgrid="false"
     inkscape:zoom="16.583333"
     inkscape:cx="15.165829"
     inkscape:cy="24.030151"
     inkscape:window-width="1920"
     inkscape:window-height="991"
     inkscape:window-x="-9"
     inkscape:window-y="-9"
     inkscape:window-maximized="1"
     inkscape:current-layer="svg4" />
  <path
     id="path2"
     d="M 24 5 L 12.699219 16.099609 C 11.232554 17.566275 10.083333 19.241669 9.25 21.125 C 8.4166675 23.008331 8 25.050002 8 27.25 C 8 31.649996 9.5658886 35.375784 12.699219 38.425781 C 15.832549 41.475778 19.600004 43 24 43 C 28.433329 43 32.207555 41.467054 35.324219 38.400391 C 38.440882 35.333727 40 31.616662 40 27.25 C 40 25.050002 39.583333 23.008331 38.75 21.125 C 37.916668 19.241669 36.767446 17.566275 35.300781 16.099609 L 24 5 z M 24 8.5800781 L 33.169922 17.587891 C 34.360205 18.778173 35.294405 20.137582 35.970703 21.666016 C 36.647 23.194447 36.984375 24.851293 36.984375 26.636719 C 36.984375 30.180517 35.720759 33.196771 33.191406 35.685547 C 30.662053 38.174321 27.597902 39.419922 24 39.419922 C 20.42915 39.419922 17.372957 38.182279 14.830078 35.707031 C 12.287199 33.231782 11.015625 30.207569 11.015625 26.636719 C 11.015625 24.851293 11.353 23.194447 12.029297 21.666016 C 12.705595 20.137582 13.639795 18.778173 14.830078 17.587891 L 24 8.5800781 z "
     style="fill:#f9f9f9" />
  <path
     id="path301"
     style="fill:#00ffff;stroke-width:0.73757"
     d="M 12.242188 25.386719 C 12.21484 25.718599 12.199219 26.054212 12.199219 26.396484 C 12.199219 29.641786 13.354967 32.389086 15.666016 34.638672 C 17.977064 36.888256 20.754698 38.013672 24 38.013672 C 27.269887 38.013672 30.05476 36.88297 32.353516 34.621094 C 34.652272 32.359216 35.800781 29.617201 35.800781 26.396484 C 35.800781 26.054212 35.78516 25.718599 35.757812 25.386719 L 12.242188 25.386719 z " />
</svg>
